<svg width="61" height="77" viewBox="0 0 61 77" fill="none" xmlns="http://www.w3.org/2000/svg">
<path d="M20.6284 0.811523H44.9856V8.33082H15.9319L20.6284 0.811523Z" fill="url(#paint0_linear_2001_19)"/>
<path d="M23.4512 16.3742L15.9319 21.1283V43.0956L23.4512 38.3991V25.6322L36.9416 35.3222V43.0956L44.9885 38.4455V32.007L44.9859 32.008L23.4512 16.3742Z" fill="url(#paint1_linear_2001_19)"/>
<path d="M44.9856 8.33082V19.967L37.9964 24.6077L32.086 20.1035L37.5823 16.0912L37.4662 8.3309L44.9856 8.33082Z" fill="url(#paint2_linear_2001_19)"/>
<path fill-rule="evenodd" clip-rule="evenodd" d="M0.289673 47.9585H8.72258V57.4854L6.89365 58.57L10.6333 66.9895H7.05315L4.05227 60.1575H3.39505V66.9895H0.289673V47.9585ZM5.6172 51.0639L5.61728 55.6964L3.39505 56.6834V51.0639H5.6172Z" fill="#FFFDFF"/>
<path fill-rule="evenodd" clip-rule="evenodd" d="M11.4575 47.9585V66.9895H14.5629V60.06L16.7852 58.9705V66.9895H19.8905V47.9585H11.4575ZM16.7852 55.512L14.5629 56.6015V51.0639H16.7852V55.512Z" fill="#FFFDFF"/>
<path d="M24.7908 66.9895V58.9905L26.842 59.9962V66.9895H29.9474V47.9585H26.842V56.5377L24.7908 55.532V47.9585H21.6854V66.9895H24.7908Z" fill="#FFFDFF"/>
<path d="M57.5252 54.7077L55.3885 55.8034V47.9585H52.2831V57.4887H52.2844V60.8033L57.5252 58.1752V63.8841H55.4245V61.803L52.3644 63.3032L52.3644 66.9895H60.6306V47.9585H57.5252V54.7077Z" fill="#FFFDFF"/>
<path d="M37.9459 47.9587L41.1716 47.9585L37.5597 55.932L42.4711 66.9895H38.8909L35.6898 59.7878L34.6766 61.4472V66.9895H31.5712V47.9585H34.6766V54.3717L37.9459 47.9587Z" fill="#FFFDFF"/>
<path d="M46.5283 47.9585H43.4229V66.9895H50.9578V63.8841H46.5283V47.9585Z" fill="#FFFDFF"/>
<path d="M20.2759 72.6797C20.2759 72.3782 20.3377 72.1113 20.4612 71.8788C20.5883 71.6463 20.759 71.4665 20.9733 71.3394C21.1912 71.2087 21.431 71.1433 21.6925 71.1433C21.9286 71.1433 22.1338 71.1905 22.3082 71.2849C22.4861 71.3757 22.6278 71.4902 22.7331 71.6282V71.1923H23.3597V74.1943H22.7331V73.7476C22.6278 73.8892 22.4843 74.0073 22.3027 74.1017C22.1211 74.1962 21.9141 74.2434 21.6816 74.2434C21.4237 74.2434 21.1876 74.178 20.9733 74.0472C20.759 73.9128 20.5883 73.7276 20.4612 73.4915C20.3377 73.2518 20.2759 72.9812 20.2759 72.6797ZM22.7331 72.6906C22.7331 72.4836 22.6895 72.3038 22.6024 72.1512C22.5188 71.9987 22.408 71.8824 22.27 71.8025C22.132 71.7226 21.9831 71.6827 21.8233 71.6827C21.6634 71.6827 21.5145 71.7226 21.3765 71.8025C21.2385 71.8788 21.1259 71.9932 21.0387 72.1458C20.9552 72.2947 20.9134 72.4727 20.9134 72.6797C20.9134 72.8867 20.9552 73.0683 21.0387 73.2245C21.1259 73.3807 21.2385 73.5006 21.3765 73.5841C21.5181 73.664 21.6671 73.704 21.8233 73.704C21.9831 73.704 22.132 73.664 22.27 73.5841C22.408 73.5042 22.5188 73.388 22.6024 73.2354C22.6895 73.0792 22.7331 72.8976 22.7331 72.6906ZM25.385 71.1433C25.6175 71.1433 25.8227 71.1905 26.0007 71.2849C26.1823 71.3757 26.3239 71.4902 26.4256 71.6282V71.1923H27.0522V74.2434C27.0522 74.5194 26.9941 74.7646 26.8779 74.9789C26.7616 75.1968 26.5927 75.3675 26.3712 75.491C26.1532 75.6145 25.8917 75.6763 25.5866 75.6763C25.1798 75.6763 24.842 75.58 24.5732 75.3875C24.3044 75.1986 24.1519 74.9408 24.1155 74.6139H24.7312C24.7784 74.77 24.8783 74.8954 25.0309 74.9898C25.1871 75.0879 25.3723 75.1369 25.5866 75.1369C25.8372 75.1369 26.0388 75.0606 26.1914 74.9081C26.3475 74.7555 26.4256 74.5339 26.4256 74.2434V73.7421C26.3203 73.8838 26.1768 74.0036 25.9952 74.1017C25.8172 74.1962 25.6138 74.2434 25.385 74.2434C25.1235 74.2434 24.8838 74.178 24.6658 74.0472C24.4515 73.9128 24.2808 73.7276 24.1537 73.4915C24.0302 73.2518 23.9684 72.9812 23.9684 72.6797C23.9684 72.3782 24.0302 72.1113 24.1537 71.8788C24.2808 71.6463 24.4515 71.4665 24.6658 71.3394C24.8838 71.2087 25.1235 71.1433 25.385 71.1433ZM26.4256 72.6906C26.4256 72.4836 26.3821 72.3038 26.2949 72.1512C26.2113 71.9987 26.1006 71.8824 25.9625 71.8025C25.8245 71.7226 25.6756 71.6827 25.5158 71.6827C25.356 71.6827 25.207 71.7226 25.069 71.8025C24.931 71.8788 24.8184 71.9932 24.7312 72.1458C24.6477 72.2947 24.6059 72.4727 24.6059 72.6797C24.6059 72.8867 24.6477 73.0683 24.7312 73.2245C24.8184 73.3807 24.931 73.5006 25.069 73.5841C25.2107 73.664 25.3596 73.704 25.5158 73.704C25.6756 73.704 25.8245 73.664 25.9625 73.5841C26.1006 73.5042 26.2113 73.388 26.2949 73.2354C26.3821 73.0792 26.4256 72.8976 26.4256 72.6906ZM30.6194 72.6198C30.6194 72.7324 30.6121 72.8341 30.5976 72.9249H28.3039C28.322 73.1646 28.411 73.3571 28.5708 73.5024C28.7306 73.6477 28.9268 73.7203 29.1593 73.7203C29.4934 73.7203 29.7295 73.5805 29.8675 73.3008H30.5377C30.4469 73.5769 30.2816 73.8039 30.0419 73.9819C29.8058 74.1562 29.5116 74.2434 29.1593 74.2434C28.8723 74.2434 28.6144 74.1798 28.3856 74.0527C28.1604 73.9219 27.9824 73.7403 27.8517 73.5078C27.7245 73.2718 27.661 72.9993 27.661 72.6906C27.661 72.3819 27.7227 72.1113 27.8462 71.8788C27.9733 71.6427 28.1495 71.4611 28.3747 71.334C28.6035 71.2068 28.865 71.1433 29.1593 71.1433C29.4426 71.1433 29.695 71.205 29.9166 71.3285C30.1381 71.452 30.3107 71.6264 30.4342 71.8516C30.5577 72.0731 30.6194 72.3292 30.6194 72.6198ZM29.9711 72.4236C29.9674 72.1948 29.8857 72.0114 29.7259 71.8733C29.5661 71.7353 29.3681 71.6663 29.132 71.6663C28.9177 71.6663 28.7343 71.7353 28.5817 71.8733C28.4292 72.0077 28.3384 72.1912 28.3093 72.4236H29.9711ZM32.7453 71.1433C32.9814 71.1433 33.192 71.1923 33.3773 71.2904C33.5662 71.3884 33.7133 71.5337 33.8186 71.7262C33.9239 71.9188 33.9766 72.1512 33.9766 72.4236V74.1943H33.3609V72.5163C33.3609 72.2475 33.2937 72.0422 33.1593 71.9006C33.0249 71.7553 32.8415 71.6827 32.6091 71.6827C32.3766 71.6827 32.1914 71.7553 32.0533 71.9006C31.9189 72.0422 31.8517 72.2475 31.8517 72.5163V74.1943H31.2306V71.1923H31.8517V71.5356C31.9534 71.4121 32.0824 71.3158 32.2386 71.2468C32.3984 71.1778 32.5673 71.1433 32.7453 71.1433ZM34.5618 72.6906C34.5618 72.3819 34.6236 72.1113 34.7471 71.8788C34.8742 71.6427 35.0485 71.4611 35.2701 71.334C35.4917 71.2068 35.7459 71.1433 36.0329 71.1433C36.3961 71.1433 36.6957 71.2304 36.9318 71.4048C37.1716 71.5755 37.3332 71.8207 37.4167 72.1403H36.7466C36.6921 71.9914 36.6049 71.8752 36.4851 71.7916C36.3652 71.7081 36.2145 71.6663 36.0329 71.6663C35.7786 71.6663 35.5752 71.7571 35.4227 71.9387C35.2737 72.1167 35.1993 72.3673 35.1993 72.6906C35.1993 73.0139 35.2737 73.2663 35.4227 73.4479C35.5752 73.6295 35.7786 73.7203 36.0329 73.7203C36.3925 73.7203 36.6304 73.5623 36.7466 73.2463H37.4167C37.3296 73.5514 37.1661 73.7948 36.9264 73.9764C36.6867 74.1544 36.3888 74.2434 36.0329 74.2434C35.7459 74.2434 35.4917 74.1798 35.2701 74.0527C35.0485 73.9219 34.8742 73.7403 34.7471 73.5078C34.6236 73.2718 34.5618 72.9993 34.5618 72.6906ZM40.7381 71.1923L38.8966 75.6055H38.2537L38.8639 74.1453L37.6816 71.1923H38.3735L39.218 73.4806L40.0952 71.1923H40.7381Z" fill="#FFFDFF"/>
<defs>
<linearGradient id="paint0_linear_2001_19" x1="15.9319" y1="0.811523" x2="53.7519" y2="26.6702" gradientUnits="userSpaceOnUse">
<stop stop-color="#F24405"/>
<stop offset="1" stop-color="#F27406"/>
</linearGradient>
<linearGradient id="paint1_linear_2001_19" x1="15.9319" y1="0.811523" x2="53.7519" y2="26.6702" gradientUnits="userSpaceOnUse">
<stop stop-color="#F24405"/>
<stop offset="1" stop-color="#F27406"/>
</linearGradient>
<linearGradient id="paint2_linear_2001_19" x1="15.9319" y1="0.811523" x2="53.7519" y2="26.6702" gradientUnits="userSpaceOnUse">
<stop stop-color="#F24405"/>
<stop offset="1" stop-color="#F27406"/>
</linearGradient>
</defs>
</svg>
